# xmcd
#
# Track frame offsets:
#        150
#        23740
#        46147
#        68190
#        86307
#        105277
#        125035
#        147242
#        161200
#        179460
#        198825
#        218785
#        240630
#        247350
#        263252
#        285820
#
# Disc length: 4112 seconds
#
# Revision: 0
# Processed by: cddbd v1.5.1PL0 Copyright (c) Steve Scherf et al.
# Submitted via: ExactAudioCopy v0.95a5
#
DISCID=d9100e10
DTITLE=Todd Rundgren - Reconstructed
DYEAR=2001
DGENRE=Rock
TTITLE0=Love Is The Answer [Fredco Mix]
TTITLE1=Drive [Chemical Groove Mix]
TTITLE2=Something To Fall Back On [Jlab Mix]
TTITLE3=Hello It's Me [Interface Mix]
TTITLE4=Bang The Drum All Day [Rosetta Stone Mix]
TTITLE5=Tiny Demons [Mission U.K. Mix]
TTITLE6=Mated [Switchblade Symphony Mix]
TTITLE7=Dream Goes On Forever [Synical Mix]
TTITLE8=Time Heals [Decoding Jesus Mix]
TTITLE9=Hello It's Me [!Tang-Pfoot Soul Dub Mix]
TTITLE10=Lord Chancellor's Nightmare Song [Flow Mix]
TTITLE11=Secret Society [Astralasia Mix]
TTITLE12=Emperor Of The Highway [Spahn Ranch Mix]
TTITLE13=Bang The Drum All Day [Skip Heller Y Sus Orquestra Sin Pagar]
TTITLE14=Love Is The Answer [Danny B Harvey Mix]
TTITLE15=A Dream Goes On Forever [Anthony Focx Mix]
EXTD=
EXTT0=
EXTT1=
EXTT2=
EXTT3=
EXTT4=
EXTT5=
EXTT6=
EXTT7=
EXTT8=
EXTT9=
EXTT10=
EXTT11=
EXTT12=
EXTT13=
EXTT14=
EXTT15=
PLAYORDER=
